<?xml version="1.0" standalone="no"?>
<!DOCTYPE svg PUBLIC "-//W3C//DTD SVG 20010904//EN"
 "http://www.w3.org/TR/2001/REC-SVG-20010904/DTD/svg10.dtd">
<svg version="1.0" xmlns="http://www.w3.org/2000/svg"
 width="1817.000000pt" height="1817.000000pt" viewBox="0 0 1817.000000 1817.000000"
 preserveAspectRatio="xMidYMid meet">
<metadata>
Created by potrace 1.16, written by Peter Selinger 2001-2019
</metadata>
<g transform="translate(0.000000,1817.000000) scale(0.100000,-0.100000)"
fill="#000000" stroke="none">
<path d="M3183 12613 c2 -2368 4 -2589 20 -2708 9 -71 24 -184 32 -250 9 -66
27 -187 41 -270 252 -1520 809 -3009 1620 -4335 47 -77 89 -140 93 -140 4 0
13 12 20 27 32 71 131 206 205 279 91 91 166 143 264 182 63 25 77 27 232 27
141 0 178 -3 258 -24 120 -30 149 -25 305 53 266 135 469 311 552 480 22 45
37 60 102 101 42 27 119 90 172 141 156 149 257 306 325 502 97 281 242 497
371 552 63 27 138 76 310 203 83 61 164 121 181 133 43 32 126 156 194 292 33
64 79 140 103 167 56 64 56 64 131 267 79 216 121 314 150 353 12 16 44 71 70
121 51 100 101 159 152 180 69 29 265 10 352 -35 46 -23 80 -53 313 -265 296
-271 462 -431 618 -595 138 -146 151 -163 166 -217 9 -33 24 -77 33 -99 24
-58 130 -213 153 -226 26 -13 34 -36 53 -147 9 -50 23 -108 31 -129 19 -46
322 -342 406 -395 62 -40 123 -106 216 -236 64 -89 214 -337 274 -451 34 -65
63 -91 129 -112 19 -7 61 -36 93 -65 79 -73 96 -82 472 -252 461 -209 681
-311 894 -413 102 -49 188 -86 192 -82 22 24 242 427 363 668 578 1144 961
2387 1105 3585 52 427 51 378 51 3138 l0 2572 -5910 0 -5910 0 3 -2577z m6034
957 c128 -401 312 -1139 372 -1495 54 -320 68 -681 36 -934 -31 -244 -85 -426
-200 -673 -104 -222 -145 -372 -145 -533 0 -80 26 -210 51 -257 11 -20 14 -12
35 77 56 249 152 409 288 475 45 23 74 30 102 28 53 -4 54 -25 5 -88 -102
-129 -139 -260 -151 -530 -10 -219 -28 -314 -84 -435 -96 -207 -258 -262 -495
-167 -243 97 -591 455 -751 772 -50 99 -97 233 -122 350 -29 134 -29 346 1
486 63 304 219 603 520 1004 114 152 183 279 209 390 17 68 21 75 44 78 24 3
27 -1 36 -45 6 -26 14 -76 18 -110 3 -35 10 -63 14 -63 10 0 65 192 89 310 56
275 78 635 61 981 -6 133 -17 299 -24 368 -8 69 -11 132 -8 139 2 7 16 12 30
10 24 -3 29 -14 69 -138z"/>
</g>
</svg>
